<?xml version="1.0" encoding="UTF-8"?>
<!-- Generator: Adobe Illustrator 27.8.1, SVG Export Plug-In . SVG Version: 6.00 Build 0)  -->
<svg xmlns="http://www.w3.org/2000/svg" xmlns:xlink="http://www.w3.org/1999/xlink" version="1.1" id="Layer_1" x="0px" y="0px" viewBox="-592.596 -127.66 1398.95 300" xml:space="preserve">
<title>header-logo</title>
<g>
	<path d="M77.881-55.231c-40.714,0-72.671,33.434-72.671,76.213C3.523,61.11,34.636,94.984,74.776,96.704   c40.143,1.651,74.01-29.502,75.723-69.575c0.045-2.096,0.045-4.113,0-6.147C150.499-21.729,118.577-55.231,77.881-55.231    M123.838,20.982c0.912,26.334-19.624,48.459-45.957,49.532c-25.248,0-45.411-22.236-45.411-49.532   c0-27.333,20.533-50.698,45.411-50.698C102.842-29.716,123.838-7.014,123.838,20.982"></path>
	<path d="M277.706-51.272c-7.223,0-13.012,5.829-13.012,12.976v74.027c1.227,17.87-12.225,33.342-30.094,34.578   c-1.352,0.114-2.688,0.116-4.023,0.066l0,0c-17.889,0.987-33.191-12.697-34.258-30.586c-0.092-1.366-0.01-2.787,0.021-4.163   v-73.923c0-7.274-5.914-13.179-13.168-13.179c-7.271,0-13.168,5.905-13.168,13.179v74.027   c-1.191,32.231,24.039,59.277,56.271,60.469c1.463,0.024,2.834,0.024,4.301,0l0,0c32.232,1.213,59.355-23.936,60.559-56.166   c0.024-1.472,0.024-2.936,0-4.407v-73.923c0-7.148-5.797-12.976-13.006-12.976"></path>
	<path d="M438.889-97.678c-7.137,0-12.93,5.831-12.93,12.968v50.633c-12.062-13.31-29.148-20.954-47.131-20.957   c-40.428,0-72.09,33.105-72.09,75.36c0,42.26,31.926,75.874,72.648,75.874c40.795,0,72.414-33.337,72.414-76.083V-84.775   c0-7.137-5.801-12.966-12.934-12.966 M379.387,71.367c-25.94,0-46.037-22.434-46.037-51.122c0-28.676,20.23-50.694,46.037-50.694   c25.818,0,45.914,22.811,45.914,50.566c0,27.763-20.668,51.128-46.045,51.128"></path>
	<path d="M-126.412,96.339c-40.62-0.117-73.464-33.078-73.383-73.69c0-0.648,0.003-1.203,0.048-1.797   c-1.196-40.778,30.897-74.808,71.669-75.967c0.542-0.044,1.122-0.049,1.667-0.056c25.849,0,49.692,13.892,62.447,36.348   c3.835,6.077,2.033,14.087-4.015,17.925c-6.046,3.867-14.048,2.068-17.92-3.98c-0.197-0.323-0.358-0.61-0.546-0.946   c-8.185-14.372-23.437-23.292-39.966-23.296c-26.591,0.541-47.686,22.559-47.143,49.109c0.003,0.328,0.004,0.639,0.013,0.921   c-0.874,26.406,19.862,48.526,46.257,49.373c0.275,0.003,0.589,0.005,0.872,0.005c16.657,0.087,32.04-8.845,40.297-23.278   c3.57-6.26,11.543-8.409,17.738-4.79c6.237,3.596,8.382,11.55,4.773,17.732l0,0C-76.437,82.601-100.428,96.476-126.412,96.339"></path>
	<path d="M-16.604,96.339c-3.648-0.004-7.139-1.591-9.607-4.3C-45.154,71.22-45.154,57.682-45.154,44.651V-84.775   c0-7.137,5.828-12.966,12.968-12.966c7.177,0,13.005,5.829,13.005,12.966V44.651c0,10.595,0,16.459,12.178,29.887   c4.835,5.271,4.49,13.478-0.809,18.317c-2.416,2.238-5.576,3.454-8.861,3.372"></path>
	<path d="M503.75,44.651V-84.775c0-7.137-5.793-12.966-13.004-12.966c-7.146,0-12.938,5.829-12.938,12.966V44.651   c0,13.004,0,26.458,18.945,47.389c4.822,5.345,13.02,5.748,18.291,0.952c0.008-0.018,0.088-0.021,0.096-0.028   c5.275-4.811,5.685-13.017,0.932-18.369c-0.057-0.003-0.072-0.005-0.082-0.008C503.75,61.11,503.75,55.333,503.75,44.651z"></path>
	<path d="M791.817,75.408l-96.408-125.13c-4.381-5.707-12.533-6.735-18.271-2.359c-5.664,4.416-6.729,12.567-2.369,18.264   l42.098,54.597l-42.098,54.578c-4.473,5.688-3.43,13.96,2.24,18.405c5.729,4.468,13.959,3.481,18.4-2.243l0,0l37.855-49.184   l37.887,49.184c2.465,3.207,6.301,5.079,10.334,5.077c7.145,0.002,13.008-5.786,13.018-13c0-2.863-0.955-5.688-2.789-7.963   L791.817,75.408z"></path>
	<path d="M669.493,18.898c2.527-2.943,3.602-6.795,2.943-10.602c-3.666-22.106-23.369-63.994-71.379-63.994   c-40.783,0.516-73.488,33.97-72.998,74.74c0.006,0.383,0.008,0.737,0.012,1.075c-1.213,40.595,30.723,74.442,71.283,75.658   c0.566,0.026,1.217,0.028,1.793,0.029c26.004,0.137,49.992-13.732,62.834-36.277c3.617-6.204,1.469-14.196-4.727-17.737   c-6.256-3.596-14.213-1.463-17.74,4.734c-8.291,14.501-23.676,23.453-40.367,23.367c-25.557-0.262-46.367-20.728-47.035-46.306   h104.859C662.967,23.534,666.79,21.846,669.493,18.898z M559.198-2.584c7.533-16.451,23.932-26.999,42.051-27.002   c17.719-0.057,33.695,10.674,40.395,27.062L559.198-2.584z"></path>
	<path d="M791.817-33.817c4.363-5.697,3.34-13.849-2.4-18.264c-5.664-4.375-13.846-3.347-18.266,2.359L742.86-12.99l16.445,21.286   L791.817-33.817z"></path>
	<path d="M-299.989,22.395c0.055-24.511-19.811-44.403-44.323-44.46c-12.158-0.002-23.783,4.968-32.174,13.765l0,0   c-5.16,5.448-10.796,10.419-16.838,14.852c-5.175,2.351-11.282,0.735-14.585-3.895c-6.32-10.564-17.72-17.135-30.072-17.33   c-19.968,0.396-35.875,16.921-35.478,36.928c0,0.056,0,0.086,0,0.141c0,0.587,0,1.19,0,1.694   c0.877,19.156,16.334,34.385,35.478,35.009c12.749-0.257,24.376-7.249,30.604-18.384c3.438-3.34,8.612-4.181,12.968-2.116   c4.422,2.778,5.766,8.582,3.008,13.002c-0.006,0.017-0.043,0.019-0.043,0.019c-10.15,17.2-28.895,27.536-48.908,26.959   c-3.067-0.108-6.092,0.176-9.048,0.854c-23.982,5.045-39.376,28.552-34.386,52.512c5.026,24.036,28.533,39.444,52.519,34.46   c19.869-4.159,34.38-21.215,35.305-41.492l0,0c0,0,3.433-29.626,16.399-42.585c13.011-12.98,31.091-12.98,42.155-16.097l0,0   C-315.851,62.779-299.992,44.229-299.989,22.395z"></path>
	<path d="M-440.353-122.66c-11.758,0.005-23.029,4.693-31.356,12.969c-6.641,6.41-10.999,14.774-12.411,23.898   c-7.326,44.326-18.745,55.611-57.691,64.125c-25.578,5.579-38.945,21.354-38.945,44.063c0,24.523,19.877,44.402,44.389,44.402   c23.366,0.399,42.896-17.722,44.257-41.003c2.743-45.442,27.463-58.411,51.951-59.671c24.267-0.548,43.85-20.092,44.397-44.392   c0-24.512-19.876-44.391-44.397-44.391C-440.217-122.66-440.286-122.66-440.353-122.66z"></path>
</g>
</svg>
